<?xml version="1.0" encoding="utf-8" ?>
<svg xmlns="http://www.w3.org/2000/svg" xmlns:xlink="http://www.w3.org/1999/xlink" width="330" height="488">
	<defs>
		<linearGradient id="gradient_0" gradientUnits="userSpaceOnUse" x1="208.37114" y1="471.14108" x2="78.671707" y2="37.583942">
			<stop offset="0" stop-color="#EB1326"/>
			<stop offset="1" stop-color="#F9A120"/>
		</linearGradient>
	</defs>
	<path fill="url(#gradient_0)" d="M185.026 4.60484L185.425 4.71909C185.478 4.8498 185.576 4.97042 185.583 5.11122C185.654 6.5272 184.06 11.6392 183.688 13.4193C183.195 15.7801 182.843 18.1861 182.515 20.5754Q181.743 26.6271 181.501 32.723Q181.258 38.8188 181.546 44.9127C182.577 64.9533 188.449 84.1892 196.899 102.283C204.02 117.531 213.494 132.075 223.177 145.787Q231.616 157.773 240.463 169.461C265.993 202.859 294.412 236.376 309.219 276.257Q311.322 282.009 312.932 287.919Q314.542 293.828 315.647 299.852Q316.752 305.877 317.345 311.973Q317.938 318.069 318.014 324.193L318.02 324.526C318.651 363.967 302.365 403.28 275.004 431.487Q272.974 433.576 270.867 435.587Q268.76 437.598 266.578 439.529Q264.397 441.459 262.144 443.305Q259.891 445.152 257.57 446.912Q255.249 448.672 252.864 450.344Q250.478 452.015 248.031 453.596Q245.584 455.176 243.079 456.663Q240.575 458.15 238.016 459.541Q235.456 460.933 232.847 462.227Q230.237 463.52 227.58 464.715Q224.924 465.909 222.224 467.003Q219.524 468.096 216.785 469.087Q214.045 470.078 211.271 470.965Q208.496 471.852 205.69 472.633Q202.884 473.415 200.051 474.09Q197.217 474.765 194.36 475.333C185.033 477.095 175.338 477.808 165.853 477.934Q159.51 477.992 153.184 477.518Q146.858 477.044 140.594 476.041Q134.33 475.038 128.173 473.513Q122.015 471.988 116.007 469.952C113.832 469.233 109.995 468.393 108.373 466.819C108.271 466.829 108.108 466.851 107.997 466.842C106.092 466.687 101.847 464.367 100.065 463.511Q96.8935 461.996 93.7932 460.339Q90.6929 458.683 87.6702 456.889Q84.6475 455.095 81.7084 453.167Q78.7693 451.239 75.9198 449.181Q73.0702 447.123 70.316 444.939Q67.5618 442.755 64.9085 440.449Q62.2552 438.144 59.7081 435.722Q57.161 433.299 54.7253 430.765C25.4012 400.262 11.3691 361.485 12.2182 319.423C13.1043 275.519 29.1806 232.962 61.1356 202.263C67.8374 214.354 74.5218 227.275 83.9771 237.492C91.9065 246.059 101.262 252.834 113.304 253.291C119.017 253.507 125.293 252.672 129.622 248.611C132.159 246.231 133.853 242.994 134.886 239.701C139.87 223.814 136.844 193.077 136.167 175.827Q135.496 158.256 135.811 140.675C136.956 98.1114 146.166 55.5068 171.809 20.6356C175.627 15.444 180.406 8.97839 185.026 4.60484Z"/>
	<path fill="#E92C26" d="M67.5 427.539C68.0295 427.57 68.3515 427.663 68.84 427.871C69.2581 428.444 69.4474 428.692 69.3514 429.448C69.2453 430.283 68.484 431.143 67.8165 431.598C67.4184 431.87 67.3494 431.774 66.8735 431.681C66.8145 431.747 66.7617 431.82 66.6964 431.88C66.3302 432.217 66.2246 432.224 65.753 432.227C65.3273 431.873 65.1356 431.685 65.1369 431.095C65.1402 429.598 66.5206 428.473 67.5 427.539Z"/>
	<path fill="#E92C26" d="M243.249 441.092C244.77 441.836 246.9 443.141 247.867 444.55C248.158 444.975 248.156 445.06 248.064 445.554L247.5 445.816C247.171 446.239 247.01 446.339 246.502 446.511C246.032 446.495 245.742 446.432 245.341 446.171C244.015 445.304 243.213 443.718 242.874 442.212C242.751 441.669 242.963 441.544 243.249 441.092Z"/>
	<path fill="#F3692E" d="M68.3967 238.229C70.9246 238.977 73.5874 242.306 75.381 244.174L72.3649 246.18C71.965 246.364 71.5316 246.573 71.0864 246.603C70.1843 246.665 69.0995 246.03 68.4483 245.422C67.3689 244.415 66.802 242.872 66.7641 241.41C66.7273 239.993 67.4944 239.192 68.3967 238.229Z"/>
	<path fill="#F3692E" d="M152.9 147.938C154.658 148.075 155.273 148.989 156.369 150.237C155.288 151.438 154.11 152.622 153.371 154.073C152.863 155.068 152.536 156.231 152.949 157.324C153.656 159.19 155.76 159.861 157.442 160.549C159.073 159.666 160.574 157.653 162.272 157.129C162.986 156.909 163.23 157.043 163.85 157.356C164.245 157.878 164.492 158.347 164.603 159.001C164.77 159.996 164.09 160.731 163.548 161.497C163.028 161.967 162.504 162.439 161.951 162.871C160.14 164.283 157.763 165.299 155.43 164.948C152.345 164.483 150.002 161.699 148.277 159.305C148.17 158.129 148.176 156.902 148.267 155.726C148.526 152.339 150.437 150.087 152.9 147.938Z"/>
	<path fill="#F04730" d="M115.102 374.862C115.14 374.88 115.178 374.897 115.216 374.915C115.279 374.946 115.341 374.979 115.404 375.009C116.616 375.576 117.039 376.383 118.021 377.175L118.206 377.322C117.237 379.377 114.462 380.42 114.283 382.939C114.197 384.144 114.951 385.426 115.786 386.258C116.581 387.051 117.533 387.569 118.672 387.568C120.64 387.977 122.801 384.657 124.512 383.929C125.074 384.156 125.322 384.232 125.698 384.737C126.151 385.345 126.446 386.367 126.293 387.123C126.168 387.742 125.866 388.063 125.375 388.423C125.133 388.914 124.803 389.302 124.417 389.688C122.728 391.377 120.576 392.454 118.161 392.441C115.806 392.428 113.744 391.093 112.153 389.45C110.639 387.886 109.666 386.091 109.703 383.877C109.771 379.786 112.35 377.46 115.102 374.862Z"/>
	<path fill="#F04730" d="M87.0448 396.052C88.726 396.374 88.9899 398.176 90.3868 398.876C91.8178 398.888 92.7595 397.287 94.33 397.723C94.9341 397.891 95.1697 398.143 95.5039 398.642C95.6764 399.895 95.0283 401.115 94.5785 402.262C94.6622 402.976 95.1611 403.521 95.6438 404.023C96.5791 404.997 98.3448 406.941 99.7072 406.962L100.369 407.179C100.926 407.029 101.501 406.893 102.081 406.908C102.858 406.929 103.374 407.398 103.896 407.917C104.172 408.558 104.241 408.9 104.075 409.583C103.734 410.07 103.536 410.341 102.979 410.573C102.667 411.196 102.27 411.567 101.744 412.006C97.1002 415.888 93.7046 407.298 90.4186 406.131C89.677 405.868 88.4182 406.6 87.4935 406.509C87.0925 406.237 86.8279 406.119 86.6408 405.632C86.3422 404.856 86.6168 403.874 86.4197 403.06C86.1485 401.94 85.459 400.905 85.2134 399.781C84.9192 398.434 86.3088 397.071 87.0448 396.052Z"/>
	<path fill="#F3692E" d="M247.217 243.767C248.304 243.707 249.315 243.683 250.371 243.984C251.855 244.406 254.178 245.21 254.898 246.721C256.254 249.565 250.41 252.215 249.639 254.78C249.44 255.444 249.462 255.701 249.768 256.3C249.965 256.368 249.982 256.389 250.224 256.386C252.35 256.358 255.864 252.31 257.322 250.865C257.781 251.443 258.288 252.036 258.673 252.665C259.111 253.382 258.97 253.961 258.762 254.734C257.34 256.616 255.731 258.771 253.555 259.823C251.816 260.665 249.715 260.706 247.91 260.046C245.467 259.152 243.251 256.827 242.181 254.49C241.327 252.623 241.34 250.573 242.056 248.664C243.033 246.062 244.77 244.847 247.217 243.767Z"/>
	<path fill="#F04730" d="M248.118 247.389C248.333 247.425 248.451 247.435 248.665 247.523C249.24 247.76 249.322 248.045 249.469 248.604C249.147 250.14 247.735 251.365 246.687 252.469C246.268 252.492 246.012 252.277 245.678 252.059C245.47 251.597 245.378 251.435 245.457 250.935C245.695 249.429 246.981 248.259 248.118 247.389Z"/>
	<path fill="#F3692E" d="M261.211 221.885C261.973 221.987 262.852 222.483 263.462 222.947C263.987 223.347 264.052 223.592 264.172 224.194C263.689 226.419 260.262 228.073 258.863 229.888C258.433 230.447 258.271 230.78 258.375 231.478C258.771 231.848 259.254 232.175 259.818 232.175C261.264 232.175 262.772 231.291 264.093 230.786C266.191 229.982 268.408 229.689 270.64 229.801C271.802 230.41 272.805 231.091 273.59 232.162C274.576 233.507 274.916 235.104 274.646 236.743C274.035 240.449 270.951 243.256 268.04 245.312C267.858 245.355 267.845 245.368 267.672 245.375C266.261 245.438 264.574 243.647 263.537 242.772C265.941 241.039 269.016 239.674 270.444 236.918C270.761 236.306 270.702 236.28 270.5 235.66C268.001 234.525 262.372 237.41 258.978 236.905C257.541 236.691 256.145 236.066 255.308 234.826C254.316 233.356 254.277 231.315 254.586 229.624C255.254 225.977 258.371 223.847 261.211 221.885Z"/>
	<path fill="#F04730" d="M80.533 402.29C81.4681 402.408 82.2153 402.559 83.032 403.052C83.7749 403.5 84.0386 403.761 84.2366 404.572C83.6481 406.556 80.3457 407.803 78.9396 409.321C78.3815 409.923 78.1201 410.334 78.1431 411.161C78.3071 411.497 78.4568 411.812 78.7669 412.037C80.2273 413.1 85.6276 410.48 87.5569 410.199C89.2358 409.954 90.9806 410.175 92.3516 411.241C93.6326 412.238 94.3831 413.776 94.5584 415.373C94.7985 417.561 93.9072 419.656 92.5511 421.335C91.6059 422.506 89.0759 425.039 87.6243 425.201C87.3412 425.45 86.9861 425.742 86.5992 425.702C85.9911 425.639 84.4188 424.361 84.0754 423.859C83.8802 423.573 83.7787 423.209 83.8707 422.875C84.2012 421.677 87.0657 420.512 88.103 419.854C89.1193 419.209 90.0436 418.196 90.2162 416.956C90.3057 416.313 90.2002 416.14 89.7939 415.664C87.3923 414.872 82.7152 417.372 79.7439 417.334C78.2153 417.315 76.617 416.924 75.5549 415.749C74.4489 414.525 74.0435 412.479 74.098 410.874C74.2438 406.581 77.6904 404.979 80.4144 402.405C80.4544 402.367 80.4934 402.328 80.533 402.29Z"/>
	<path fill="#F04730" d="M127.166 362.6L127.881 362.856C128.781 364.593 128.497 369.661 128.555 371.824C130.193 372.833 135.718 372.569 137.954 372.803C138.676 372.879 139.068 372.909 139.532 373.475C139.518 373.727 139.512 373.957 139.403 374.191C138.803 375.472 136.841 376.626 135.574 377.132C134.085 377.725 129.526 376.91 128.03 376.212C128.049 376.268 128.067 376.323 128.087 376.378C128.682 377.984 130.502 380.431 132.044 381.17C132.017 381.223 131.991 381.277 131.961 381.328C131.362 382.347 130.005 384.018 128.874 384.339C128.822 384.331 128.768 384.33 128.717 384.315C127.649 384.007 124.975 381.145 124.375 380.158C124.239 380.131 124.164 380.127 124.036 380.042C122.452 379.004 112.95 368.993 112.402 367.505C113.374 367.074 114.802 365.521 115.426 364.664C115.484 364.761 115.553 364.883 115.622 364.976C116.498 366.162 123.982 373.249 124.889 373.419C125.046 370.887 124.492 368.21 124.489 365.637C125.338 365.213 126.672 363.417 127.166 362.6Z"/>
	<path fill="#F3692E" d="M165.115 135.857C165.513 135.949 165.728 136.075 166.054 136.318C167.176 138.375 166.747 142.518 166.763 144.909C170.752 145.077 174.513 145.292 178.438 146.094Q176.429 148.193 173.962 149.726C171.349 149.848 168.697 149.52 166.093 149.301C167.381 151.002 169.066 152.457 170.602 153.936C169.438 155.116 168.295 156.318 167.145 157.512Q165.275 155.659 163.327 153.888C160.642 151.28 152.182 143.191 150.524 140.498C151.568 139.568 152.762 138.76 153.881 137.92C157.37 140.055 159.572 143.997 162.975 146.065C163.784 144.871 162.651 141.473 162.721 139.929C162.81 137.986 163.773 137.09 165.115 135.857Z"/>
	<path fill="#F04730" d="M104.112 387.551C105.084 387.885 106.418 387.882 107.358 387.451C108.241 388.501 109.632 389.399 110.64 390.408C111.667 391.436 112.563 392.814 113.691 393.681C113.871 395.472 113.97 397.145 113.485 398.899C112.919 400.946 111.688 402.959 109.777 403.982C108.937 404.431 107.821 404.931 106.875 404.656C105.737 405.276 104.162 404.953 102.96 404.632C100.801 404.055 98.9486 402.133 97.8909 400.233C96.8035 398.279 96.4811 396.125 97.0974 393.962C98.2192 390.025 100.71 389.424 103.935 387.65L104.112 387.551Z"/>
	<path fill="#E92C26" d="M103.166 392.325C104.446 392.489 105.557 392.688 106.683 393.347C108.024 394.131 109.271 395.487 109.607 397.04C109.772 397.805 109.707 398.685 109.222 399.326C108.757 399.942 108.336 400.073 107.625 400.167C107.384 400.379 107.145 400.499 106.865 400.656C105.457 400.579 104.165 399.837 103.199 398.832C102.258 397.853 101.385 396.36 101.492 394.962C101.586 393.75 102.329 393.089 103.166 392.325Z"/>
	<path fill="#F04730" d="M222.768 268.566C223.832 268.394 224.913 268.368 225.977 268.568C229.264 269.187 231.385 271.573 233.178 274.207C233.435 276.684 233.612 279.185 232.368 281.454C231.253 283.487 229.376 284.736 227.188 285.374C225.424 285.739 224.02 285.883 222.308 285.211C219.931 284.278 217.939 282.208 216.926 279.881C216.068 277.913 216.073 275.757 216.865 273.768C217.997 270.928 220.105 269.721 222.768 268.566Z"/>
	<path fill="#F04730" d="M191.612 291.434C194.114 291.996 197.493 294.143 199.889 295.275C204.051 297.241 208.356 299.009 212.425 301.156C211.756 301.992 210.791 303.398 209.801 303.83C208.092 304.576 205.872 303.408 204.241 302.82C202.335 304.067 200.702 305.298 199.25 307.084C198.064 308.701 200.409 311.021 200.187 312.946C200.03 314.31 199.021 314.963 198.005 315.707C196.419 313.334 195.191 310.541 193.937 307.977C191.801 303.609 189.721 299.272 187.231 295.088C188.594 293.659 189.936 292.495 191.612 291.434Z"/>
	<path fill="#F3692E" d="M49.9281 244.436C51.313 244.726 53.1461 245.894 54.471 246.51C59.741 248.964 64.922 251.597 70.2252 253.977C69.1619 255.359 68.1456 256.685 66.8397 257.853L62.3341 255.581C60.6679 256.698 59.3344 258.233 58.0318 259.739C56.5432 261.82 58.3074 263.343 58.1747 265.632C58.0923 267.054 56.9124 267.951 55.9412 268.828C52.1103 262.191 49.277 255.001 45.6617 248.24C46.9308 246.668 48.2717 245.57 49.9281 244.436Z"/>
	<path fill="#F3692E" d="M236.359 255.763C237.275 255.719 238.388 255.619 239.269 255.894C241.968 256.736 244.169 259.988 245.46 262.345C245.532 263.793 245.492 265.195 245.138 266.609C244.097 270.77 241.242 273.185 237.699 275.269C236.025 273.44 234.193 271.726 232.431 269.98C230.718 268.308 221.956 259.863 221.921 258.255C222.553 257.203 223.73 256.533 224.721 255.843C226.563 256.956 228.291 258.411 229.765 259.973C231.721 257.716 233.579 256.721 236.359 255.763Z"/>
	<path fill="#F04730" d="M235.223 260.768C235.644 260.745 236.086 260.713 236.507 260.749C237.877 260.867 239.079 261.495 239.982 262.521C240.828 263.484 241.269 264.723 241.145 266.004C240.995 267.559 240.312 268.409 239.141 269.368C237.104 267.165 234.622 265.093 232.942 262.62C233.646 261.944 234.453 261.367 235.223 260.768Z"/>
	<path fill="#F04730" d="M205.9 274.163C205.957 274.172 206.014 274.181 206.071 274.189C208.295 274.479 219.754 286.652 222.383 288.983C221.346 292.714 219.633 295.165 216.416 297.324C214.785 298.018 213.075 298.375 211.306 298.117Q210.883 298.053 210.468 297.948Q210.053 297.843 209.65 297.697Q209.248 297.551 208.862 297.366Q208.476 297.182 208.11 296.96Q207.744 296.738 207.401 296.48Q207.059 296.223 206.744 295.934Q206.429 295.644 206.144 295.324Q205.859 295.005 205.607 294.659C201.186 288.651 206.579 285.039 206.885 281.503C207.085 279.186 204.75 279.146 203.744 277.742C203.553 277.474 203.509 277.273 203.553 276.961C203.725 275.712 204.995 274.902 205.9 274.163Z"/>
</svg>
